<?xml version="1.0" encoding="UTF-8" standalone="no"?>
<!DOCTYPE svg PUBLIC "-//W3C//DTD SVG 1.1//EN"
 "http://www.w3.org/Graphics/SVG/1.1/DTD/svg11.dtd">
<!-- Generated by graphviz version 2.47.0 (20210316.0004)
 -->
<!-- Title: dependencies Pages: 1 -->
<svg width="1067pt" height="284pt"
 viewBox="0.00 0.00 1067.00 284.00" xmlns="http://www.w3.org/2000/svg" xmlns:xlink="http://www.w3.org/1999/xlink">
<g id="graph0" class="graph" transform="scale(1 1) rotate(0) translate(4 280)">
<title>dependencies</title>
<polygon fill="white" stroke="transparent" points="-4,4 -4,-280 1063,-280 1063,4 -4,4"/>
<text text-anchor="start" x="508.51" y="-42.4" font-family="sans-serif" font-weight="bold" font-size="14.00">Legend</text>
<polygon fill="#ffffb3" stroke="transparent" points="295.5,-10 295.5,-30 315.5,-30 315.5,-10 295.5,-10"/>
<text text-anchor="start" x="319.13" y="-15.4" font-family="sans-serif" font-size="14.00"> &#160;Declarations</text>
<polygon fill="#8dd3c7" stroke="transparent" points="408.5,-10 408.5,-30 428.5,-30 428.5,-10 408.5,-10"/>
<text text-anchor="start" x="432.23" y="-15.4" font-family="sans-serif" font-size="14.00"> &#160;Module</text>
<polygon fill="#80b1d3" stroke="transparent" points="494.5,-10 494.5,-30 514.5,-30 514.5,-10 494.5,-10"/>
<text text-anchor="start" x="518.28" y="-15.4" font-family="sans-serif" font-size="14.00"> &#160;Bootstrap</text>
<polygon fill="#fdb462" stroke="transparent" points="591.5,-10 591.5,-30 611.5,-30 611.5,-10 591.5,-10"/>
<text text-anchor="start" x="615.17" y="-15.4" font-family="sans-serif" font-size="14.00"> &#160;Providers</text>
<polygon fill="#fb8072" stroke="transparent" points="687.5,-10 687.5,-30 707.5,-30 707.5,-10 687.5,-10"/>
<text text-anchor="start" x="711.23" y="-15.4" font-family="sans-serif" font-size="14.00"> &#160;Exports</text>
<g id="clust1" class="cluster">
<title>cluster_AppModule</title>
<polygon fill="none" stroke="black" stroke-dasharray="1,5" points="8,-70 8,-268 1051,-268 1051,-70 8,-70"/>
</g>
<g id="clust2" class="cluster">
<title>cluster_AppModule_declarations</title>
<polygon fill="none" stroke="black" points="168,-78 168,-130 1043,-130 1043,-78 168,-78"/>
</g>
<g id="clust8" class="cluster">
<title>cluster_AppModule_imports</title>
<polygon fill="none" stroke="black" points="16,-78 16,-130 160,-130 160,-78 16,-78"/>
</g>
<g id="clust10" class="cluster">
<title>cluster_AppModule_bootstrap</title>
<polygon fill="none" stroke="black" points="476,-208 476,-260 600,-260 600,-208 476,-208"/>
</g>
<!-- AppComponent -->
<g id="node1" class="node">
<title>AppComponent</title>
<polygon fill="#ffffb3" stroke="black" points="1034.94,-122 929.06,-122 929.06,-86 1034.94,-86 1034.94,-122"/>
<text text-anchor="middle" x="982" y="-99.8" font-family="Times,serif" font-size="14.00">AppComponent</text>
</g>
<!-- AppModule -->
<g id="node6" class="node">
<title>AppModule</title>
<polygon fill="#8dd3c7" stroke="black" points="579.66,-187 576.66,-191 555.66,-191 552.66,-187 496.34,-187 496.34,-151 579.66,-151 579.66,-187"/>
<text text-anchor="middle" x="538" y="-164.8" font-family="Times,serif" font-size="14.00">AppModule</text>
</g>
<!-- AppComponent&#45;&gt;AppModule -->
<g id="edge1" class="edge">
<title>AppComponent&#45;&gt;AppModule</title>
<path fill="none" stroke="black" d="M982,-122.28C982,-143.32 982,-175 982,-175 982,-175 589.77,-175 589.77,-175"/>
<polygon fill="black" stroke="black" points="589.77,-171.5 579.77,-175 589.77,-178.5 589.77,-171.5"/>
</g>
<!-- DimmingMenuComponent -->
<g id="node2" class="node">
<title>DimmingMenuComponent</title>
<polygon fill="#ffffb3" stroke="black" points="910.66,-122 743.34,-122 743.34,-86 910.66,-86 910.66,-122"/>
<text text-anchor="middle" x="827" y="-99.8" font-family="Times,serif" font-size="14.00">DimmingMenuComponent</text>
</g>
<!-- DimmingMenuComponent&#45;&gt;AppModule -->
<g id="edge2" class="edge">
<title>DimmingMenuComponent&#45;&gt;AppModule</title>
<path fill="none" stroke="black" d="M827,-122.02C827,-139.37 827,-163 827,-163 827,-163 589.71,-163 589.71,-163"/>
<polygon fill="black" stroke="black" points="589.71,-159.5 579.71,-163 589.71,-166.5 589.71,-159.5"/>
</g>
<!-- InstrumentPanelComponent -->
<g id="node3" class="node">
<title>InstrumentPanelComponent</title>
<polygon fill="#ffffb3" stroke="black" points="725.59,-122 552.41,-122 552.41,-86 725.59,-86 725.59,-122"/>
<text text-anchor="middle" x="639" y="-99.8" font-family="Times,serif" font-size="14.00">InstrumentPanelComponent</text>
</g>
<!-- InstrumentPanelComponent&#45;&gt;AppModule -->
<g id="edge3" class="edge">
<title>InstrumentPanelComponent&#45;&gt;AppModule</title>
<path fill="none" stroke="black" d="M566.14,-122.11C566.14,-122.11 566.14,-140.99 566.14,-140.99"/>
<polygon fill="black" stroke="black" points="562.64,-140.99 566.14,-150.99 569.64,-140.99 562.64,-140.99"/>
</g>
<!-- InstrumentsMediumComponent -->
<g id="node4" class="node">
<title>InstrumentsMediumComponent</title>
<polygon fill="#ffffb3" stroke="black" points="534.37,-122 339.63,-122 339.63,-86 534.37,-86 534.37,-122"/>
<text text-anchor="middle" x="437" y="-99.8" font-family="Times,serif" font-size="14.00">InstrumentsMediumComponent</text>
</g>
<!-- InstrumentsMediumComponent&#45;&gt;AppModule -->
<g id="edge4" class="edge">
<title>InstrumentsMediumComponent&#45;&gt;AppModule</title>
<path fill="none" stroke="black" d="M515.3,-122.11C515.3,-122.11 515.3,-140.99 515.3,-140.99"/>
<polygon fill="black" stroke="black" points="511.8,-140.99 515.3,-150.99 518.8,-140.99 511.8,-140.99"/>
</g>
<!-- TopNavbarComponent -->
<g id="node5" class="node">
<title>TopNavbarComponent</title>
<polygon fill="#ffffb3" stroke="black" points="321.58,-122 176.42,-122 176.42,-86 321.58,-86 321.58,-122"/>
<text text-anchor="middle" x="249" y="-99.8" font-family="Times,serif" font-size="14.00">TopNavbarComponent</text>
</g>
<!-- TopNavbarComponent&#45;&gt;AppModule -->
<g id="edge5" class="edge">
<title>TopNavbarComponent&#45;&gt;AppModule</title>
<path fill="none" stroke="black" d="M249,-122.02C249,-139.37 249,-163 249,-163 249,-163 486.29,-163 486.29,-163"/>
<polygon fill="black" stroke="black" points="486.29,-166.5 496.29,-163 486.29,-159.5 486.29,-166.5"/>
</g>
<!-- AppComponent  -->
<g id="node8" class="node">
<title>AppComponent </title>
<polygon fill="#80b1d3" stroke="black" points="592.44,-252 483.56,-252 483.56,-216 592.44,-216 592.44,-252"/>
<text text-anchor="middle" x="538" y="-229.8" font-family="Times,serif" font-size="14.00">AppComponent </text>
</g>
<!-- AppModule&#45;&gt;AppComponent  -->
<g id="edge7" class="edge">
<title>AppModule&#45;&gt;AppComponent </title>
<path fill="none" stroke="black" stroke-dasharray="1,5" d="M538,-187.11C538,-187.11 538,-205.99 538,-205.99"/>
<polygon fill="black" stroke="black" points="534.5,-205.99 538,-215.99 541.5,-205.99 534.5,-205.99"/>
</g>
<!-- AppRoutingModule -->
<g id="node7" class="node">
<title>AppRoutingModule</title>
<polygon fill="#8dd3c7" stroke="black" points="152.27,-122 149.27,-126 128.27,-126 125.27,-122 23.73,-122 23.73,-86 152.27,-86 152.27,-122"/>
<text text-anchor="middle" x="88" y="-99.8" font-family="Times,serif" font-size="14.00">AppRoutingModule</text>
</g>
<!-- AppRoutingModule&#45;&gt;AppModule -->
<g id="edge6" class="edge">
<title>AppRoutingModule&#45;&gt;AppModule</title>
<path fill="none" stroke="black" d="M88,-122.28C88,-143.32 88,-175 88,-175 88,-175 486.07,-175 486.07,-175"/>
<polygon fill="black" stroke="black" points="486.07,-178.5 496.07,-175 486.07,-171.5 486.07,-178.5"/>
</g>
</g>
</svg>
